<?xml version="1.0" encoding="UTF-8"?>
<!DOCTYPE svg PUBLIC "-//W3C//DTD SVG 1.1//EN" "http://www.w3.org/Graphics/SVG/1.1/DTD/svg11.dtd">
<!-- Creator: CorelDRAW X6 -->
<svg xmlns="http://www.w3.org/2000/svg" xml:space="preserve" width="107.631mm" height="39.7882mm" version="1.1" style="shape-rendering:geometricPrecision; text-rendering:geometricPrecision; image-rendering:optimizeQuality; fill-rule:evenodd; clip-rule:evenodd"
viewBox="0 0 10878 4021"
 xmlns:xlink="http://www.w3.org/1999/xlink">
 <defs>
  <style type="text/css">
   <![CDATA[
    .str0 {stroke:#FFF212;stroke-width:75.7972}
    .fil0 {fill:none}
   ]]>
  </style>
 </defs>
 <g id="Camada_x0020_1">
  <metadata id="CorelCorpID_0Corel-Layer"/>
  <g id="_318514912">
   <path class="fil0 str0" d="M4713 1287c-252,0 -649,22 -884,-19 -283,-50 -363,-337 -212,-529 156,-198 1334,-124 1623,-124l0 1203 571 0 0 -1200 553 -20 0 -495c-302,-65 -1351,-18 -1730,-18 -480,0 -1111,-81 -1471,274 -339,334 -288,891 45,1212 341,329 1054,247 1506,247l0 -531z"/>
   <path class="fil0 str0" d="M1321 1331l-46 56 -32 -65 -350 -1240 -664 19 597 1714 883 2c157,-39 414,-1189 605,-1490l1 1490 571 0 0 -1733 -1204 6 -361 1241z"/>
   <path class="fil0 str0" d="M9082 509l294 -6 220 35c59,120 61,140 -3,269l-182 21 -330 0 0 -318zm610 637c152,-128 374,-133 441,-376 245,-881 -1186,-685 -1685,-685l0 1734 633 -10 0 -535c126,69 432,415 535,546l704 -20 0 -507 -548 -16 -81 -132z"/>
   <path class="fil0 str0" d="M7263 562c583,-160 663,691 272,812 -630,196 -682,-699 -272,-812zm1090 619c287,-1373 -1735,-1481 -1951,-475 -299,1387 1735,1509 1951,475z"/>
   <path class="fil0 str0" d="M3057 2606l217 657 -476 -1 259 -656zm1602 22l296 -6 219 35c59,120 61,140 -3,269l-182 21 -330 0 -1 -318zm-2610 1309l617 -3 111 -313 467 -2c155,86 56,225 214,318l1203 -1 0 -542c126,69 432,415 535,544l1275 0 -18 -1733 -570 0 0 1203 -529 -3 -82 -138c161,-135 344,-95 434,-354 70,-202 5,-465 -167,-578 -313,-206 -1115,-129 -1509,-129l-1 1569 -546 -1559c-1014,-15 -830,-115 -994,372l-438 1351z"/>
   <path class="fil0 str0" d="M9722 2681c582,-160 663,691 272,812 -630,196 -682,-699 -272,-812zm1089 619c287,-1373 -1734,-1481 -1951,-475 -299,1387 1735,1509 1951,475z"/>
   <path class="fil0 str0" d="M1032 2627l357 -4 152 26c77,109 81,135 30,278l-218 19 -321 0 0 -318zm-994 103l365 3 0 1195 629 8 0 -566 392 0c955,0 931,-1167 0,-1167l-1386 4 0 523z"/>
   <polygon class="fil0 str0" points="6536,2730 7365,2744 6537,3422 6535,3928 8127,3936 8127,3405 7299,3391 8124,2735 8127,2203 6536,2216 "/>
   <polygon class="fil0 str0" points="8234,3936 8804,3936 8805,3264 8804,2875 8804,2203 8234,2203 "/>
  </g>
 </g>
</svg>
