<svg width="40" height="28" viewBox="0 0 40 28" fill="none" xmlns="http://www.w3.org/2000/svg">
<path d="M38.8889 0.855673C38.535 0.503865 38.0563 0.306396 37.5573 0.306396C37.0582 0.306396 36.5795 0.503865 36.2256 0.855673L15.2589 21.7279L3.92557 10.3946C3.5799 10.0213 3.10013 9.80072 2.5918 9.78124C2.08347 9.76175 1.58823 9.945 1.21501 10.2907C0.84179 10.6363 0.621173 11.1161 0.60169 11.6244C0.582207 12.1328 0.765454 12.628 1.11112 13.0012L15.2589 27.1112L38.8889 3.53789C39.066 3.3623 39.2065 3.15338 39.3024 2.9232C39.3983 2.69302 39.4477 2.44614 39.4477 2.19678C39.4477 1.94743 39.3983 1.70054 39.3024 1.47036C39.2065 1.24018 39.066 1.03127 38.8889 0.855673Z" fill="#FFF212"/>
</svg>
