<?xml version="1.0" encoding="UTF-8"?>
<!DOCTYPE svg PUBLIC "-//W3C//DTD SVG 1.1//EN" "http://www.w3.org/Graphics/SVG/1.1/DTD/svg11.dtd">
<!-- Creator: CorelDRAW X6 -->
<svg xmlns="http://www.w3.org/2000/svg" xml:space="preserve" width="386.679mm" height="165.559mm" version="1.1" style="shape-rendering:geometricPrecision; text-rendering:geometricPrecision; image-rendering:optimizeQuality; fill-rule:evenodd; clip-rule:evenodd"
viewBox="0 0 38668 16556"
 xmlns:xlink="http://www.w3.org/1999/xlink">
 <defs>
  <style type="text/css">
   <![CDATA[
    .fil0 {fill:#FFF212}
   ]]>
  </style>
 </defs>
 <g id="Camada_x0020_1">
  <metadata id="CorelCorpID_0Corel-Layer"/>
  <path class="fil0" d="M18556 1358l0 1358 -1746 0 -1746 0 0 2663 0 2663 -1517 0 -1517 0 0 -2663 0 -2663 -1834 0c-1009,0 -1834,14 -1834,32 0,46 155,265 649,903 804,1041 938,1242 1023,1531 74,250 74,727 0,1023 -205,826 -840,1528 -1552,1715 -374,99 -1355,123 -4942,123l-3538 0 0 -1464 0 -1464 3154 0c1785,0 3164,-14 3175,-32 25,-39 -35,-113 -557,-709 -780,-885 -988,-1217 -1044,-1665 -88,-727 176,-1475 723,-2021 374,-374 769,-586 1231,-653 99,-14 2812,-28 6029,-32l5846 -4 0 1358 0 0zm5823 9947l0 395 829 0c928,0 1030,-18 1129,-212 81,-155 46,-325 -92,-437 -106,-88 -123,-92 -589,-92 -265,0 -663,-11 -878,-25l-399 -21 0 392zm9013 -2332c-487,56 -896,215 -1171,448 -201,173 -413,501 -504,780 -67,201 -78,293 -64,646 11,395 18,423 145,677 145,286 247,420 882,1136 413,462 624,762 624,885 0,120 -145,367 -240,413 -205,95 -2586,138 -4353,74 -737,-25 -769,-32 -900,-116 -194,-127 -579,-529 -568,-589 7,-28 145,-127 307,-222 374,-215 730,-508 921,-751 346,-445 469,-1069 318,-1577 -212,-713 -843,-1358 -1588,-1623l-229 -81 -2639 -11 -2635 -11 7 3503 11 3503 1080 11 1080 7 21 -660c14,-367 25,-977 25,-1365l0 -699 134 113c71,64 480,445 907,847 1337,1259 1753,1598 2078,1683 243,67 5482,106 6689,49 1139,-49 1270,-88 1679,-473 445,-413 663,-868 663,-1383 0,-515 -53,-603 -1122,-1940 -568,-713 -660,-868 -621,-1080 14,-78 60,-187 95,-240l71 -92 1824 -11 1820 -7 0 -935 0 -935 -2318 4c-1277,4 -2367,14 -2427,21l0 0zm-7038 1566c303,141 512,476 504,811 -7,335 -183,589 -522,744 -173,78 -205,81 -1217,81 -572,0 -1083,-11 -1136,-28l-99 -25 0 -833 0 -829 1175 11c988,11 1189,21 1295,67zm-25541 -1531c0,18 533,1591 1182,3500 649,1909 1182,3475 1182,3482 0,7 314,14 699,14l702 0 769 -2110c420,-1157 769,-2110 776,-2117 4,-4 201,561 437,1252 236,695 568,1658 737,2145l307 882 702 0 702 0 1034 -3016c572,-1658 1115,-3242 1210,-3521l176 -501 -1009 7 -1009 11 -261 741c-656,1884 -801,2275 -829,2233 -60,-95 -265,-653 -663,-1810l-416 -1199 -1104 -11c-607,-4 -1115,4 -1132,21 -14,14 -258,684 -540,1485 -282,804 -526,1485 -543,1513 -28,49 -131,-229 -843,-2233l-275 -776 -995 -11c-547,-4 -995,4 -995,18l0 0zm14556 3143c-134,363 -250,681 -258,702 -14,35 99,46 497,46l512 0 -229 -681c-131,-370 -243,-688 -258,-702 -14,-18 -134,268 -265,635zm-2646 261c-660,1909 -1203,3489 -1214,3514 -11,35 191,42 984,35l998 -11 152 -508c81,-279 155,-512 159,-515 7,-4 815,4 1796,11l1782 14 155 512c88,282 173,519 194,526 21,11 473,11 1009,7l974 -11 -1224 -3510 -1221 -3510 -1672 -11 -1676 -7 -1196 3464 0 0zm3489 -748c307,903 564,1662 572,1683 14,35 -236,46 -1185,46l-1203 0 120 -328c67,-176 335,-914 596,-1630 547,-1496 526,-1436 536,-1422 4,7 258,748 564,1651l0 0zm14587 -8823l0 392 826 0c512,0 864,-14 935,-39 268,-95 289,-515 32,-656 -99,-53 -233,-64 -953,-74l-840 -14 0 392 0 0zm-2716 1217l0 3514 1129 0 1129 0 7 -1333 11 -1330 388 374c1376,1319 2177,2021 2487,2177l194 95 2374 11 2371 11 0 -363c0,-201 -11,-635 -25,-967l-21 -607 -1894 -25 -1894 -25 -233 -201c-222,-191 -483,-476 -483,-529 0,-14 85,-71 187,-127 370,-198 766,-483 942,-681 236,-261 448,-691 497,-1012 39,-254 18,-656 -46,-935 -106,-444 -603,-1037 -1076,-1284 -466,-240 -437,-236 -3387,-258l-2656 -21 0 3517zm4180 -2064c681,56 977,328 981,885 0,268 -85,466 -261,614 -243,205 -226,205 -1492,208l-1168 7 -11 -875 -7 -871 801 0c445,4 963,18 1157,32zm-10139 1027c-4,11 -123,349 -268,758 -145,406 -265,751 -265,766 0,18 240,28 529,28 293,0 529,-11 529,-28 -4,-32 -526,-1549 -526,-1524l0 0zm-1750 -2427c-11,25 -533,1538 -1161,3362 -631,1824 -1168,3383 -1199,3464l-53 152 1023 0c787,0 1027,-11 1037,-46 7,-21 81,-254 159,-512l145 -466 1065 4c586,4 1390,18 1785,28l716 21 162 519 159 522 998 0 1002 0 -229 -663c-127,-363 -677,-1958 -1224,-3542l-998 -2886 -1686 0c-1316,0 -1690,11 -1700,42l0 0zm2342 2642c307,900 572,1672 582,1715l25 81 -1199 0c-773,0 -1203,-14 -1203,-35 0,-28 282,-822 1122,-3164 49,-141 95,-250 102,-243 7,7 265,748 572,1647l0 0zm-16094 -2681c-579,138 -1125,670 -1330,1305 -127,381 -123,854 4,1125 102,219 381,579 953,1221 480,547 596,706 596,829 0,183 -102,370 -265,487l-152 109 -2984 0 -2985 0 0 974 0 970 3821 -14c4173,-14 4022,-7 4385,-219 730,-427 1154,-1464 864,-2117 -78,-173 -332,-526 -945,-1316 -734,-942 -787,-1055 -653,-1358 134,-303 14,-289 2434,-300l2124 -11 0 2667 0 2663 1058 0 1058 0 0 -2663 0 -2663 1746 0 1746 0 0 -864 0 -864 -5669 4c-3200,4 -5733,18 -5807,35l0 0zm18868 3501c762,2201 1386,4015 1390,4029 0,32 -1933,32 -2589,-4l-455 -21 -99 -335c-56,-183 -127,-420 -159,-522l-53 -183 -1425 0 -1425 0 -145 466c-78,258 -152,490 -159,512 -11,35 -356,46 -1556,46 -1450,0 -1538,-4 -1513,-64 11,-32 635,-1834 1383,-4004l1362 -3941 2028 7 2028 11 1386 4004 0 0zm6876 -3986c1355,35 1453,49 1912,268 603,289 1175,924 1362,1513 67,212 78,328 78,811 0,526 -7,582 -95,822 -53,145 -148,349 -212,459 -162,272 -550,677 -822,854 -127,81 -229,155 -229,162 0,7 39,35 85,67 71,46 381,60 2120,88 1122,18 2043,39 2046,42 4,7 18,656 32,1446l25 1439 -2198 0c-2466,-4 -3136,-28 -3380,-134 -303,-131 -808,-543 -1817,-1482l-423 -395 -11 1005 -7 1005 -1605 0 -1605 0 0 -4004 0 -4004 1757 4c963,0 2311,14 2988,32l0 0zm-14728 8474c21,64 642,1856 1383,3979 737,2124 1351,3884 1362,3909 11,35 -296,42 -1513,35l-1524 -11 -162 -515 -159 -515 -1005 -21c-550,-14 -1196,-25 -1432,-25l-430 0 -155 533 -155 533 -1489 -14c-818,-7 -1496,-21 -1506,-32 -14,-14 2522,-7426 2713,-7927 11,-32 448,-42 2025,-42l2007 0 42 113 0 0zm-14961 -46l473 21 314 882c402,1147 420,1189 441,1168 11,-7 180,-483 381,-1051l363 -1034 1464 -11 1464 -7 282 818c152,452 318,938 363,1080 42,138 92,243 109,226 14,-14 162,-423 332,-907 166,-487 328,-949 356,-1034l53 -148 1513 0c833,0 1513,4 1513,7 0,7 -617,1803 -1372,3997l-1369 3986 -1055 11 -1055 7 -564 -1644c-374,-1090 -575,-1626 -596,-1595 -14,28 -286,755 -600,1616l-575 1570 -1037 11 -1037 7 -1341 -3937c-737,-2166 -1344,-3969 -1351,-4004 -11,-64 32,-67 1023,-64 568,4 1245,14 1506,28l0 0zm35945 1369l-11 1404 -1877 -14c-1224,-7 -1880,0 -1880,21 0,49 145,243 790,1055 783,981 903,1224 903,1842 -4,723 -360,1401 -991,1884 -296,226 -437,293 -790,370 -215,49 -706,60 -3715,71 -2060,7 -3616,0 -3835,-21 -318,-28 -399,-49 -607,-159 -307,-166 -635,-427 -1326,-1072 -307,-286 -639,-589 -734,-674l-173 -155 0 1069 0 1069 -325 -25c-176,-11 -889,-21 -1588,-21l-1263 0 0 -3986 0 -3990 2886 11c2875,11 2882,14 3140,92 515,159 953,427 1316,804 526,550 804,1175 808,1799 0,275 -138,758 -310,1090 -145,279 -614,776 -896,953 -95,60 -169,113 -169,123 0,11 35,42 81,71 67,42 402,53 2212,64 1175,7 2219,0 2321,-18l187 -28 -222 -268c-123,-145 -356,-413 -519,-589 -663,-723 -885,-1192 -885,-1891 0,-1108 716,-1986 1820,-2219 201,-46 695,-56 2953,-56l2706 -4 -7 1401 0 0z"/>
 </g>
</svg>
